<?xml version="1.0" encoding="utf-8"?>
<!-- Generator: Adobe Illustrator 27.5.0, SVG Export Plug-In . SVG Version: 6.00 Build 0)  -->
<svg version="1.1" xmlns="http://www.w3.org/2000/svg" xmlns:xlink="http://www.w3.org/1999/xlink" x="0px" y="0px"
	 viewBox="0 0 750 500" style="enable-background:new 0 0 750 500;" xml:space="preserve">
<g id="BACKGROUND">
	<rect style="fill:#FFFFFF;" width="750" height="500"/>
</g>
<g id="OBJECTS">
	<g>
		<defs>
			<rect id="SVGID_1_" width="750" height="500"/>
		</defs>
		<clipPath id="SVGID_00000103258758012897263300000013766208051115736720_">
			<use xlink:href="#SVGID_1_"  style="overflow:visible;"/>
		</clipPath>
		<g style="clip-path:url(#SVGID_00000103258758012897263300000013766208051115736720_);">
			<polygon style="fill:#919191;" points="749.085,156.194 749.133,156.192 749.085,154.862 			"/>
			<path style="fill:#919191;" d="M783.477,3.505c-2.396-2.406-4.646-4.969-7.189-7.217c-3.62-3.2-7.492-5.374-11.398-7.326
				c-2.146-1.072-4.362-2.009-6.446-3.197c-1.933-1.101-3.739-2.413-5.538-3.717c-1.568-1.139-3.137-2.278-4.705-3.415
				c-0.932-0.677-1.868-1.357-2.714-2.141c-1.129-1.048-2.096-2.281-3.342-3.184c-1.248-0.905-2.906-1.45-4.341-0.885
				c-0.756,0.298-1.436,0.893-2.25,0.872c-0.376-0.01-0.753-0.155-1.119-0.07c-1.118,0.255-0.987,2.167-2.043,2.611
				c-0.325,0.137-0.7,0.098-1.033,0.21c-1.176,0.392-1.098,2.185-2.04,2.99c-0.262,0.225-0.599,0.366-0.805,0.641
				c-0.327,0.438-0.215,1.066,0.016,1.562c0.231,0.496,0.57,0.953,0.675,1.49c-1.336,1.663-0.716,3.578,0.519,4.412
				c1.233,0.835,2.816,0.895,4.306,0.929c3.73,0.085,7.526,0.197,11.06,1.398c4.609,1.565,8.411,4.856,11.868,8.281
				c4.627,4.583,8.873,9.548,12.683,14.829c-2.056,1.791-4.71,3.368-7.367,4.943c-3.451,2.047-6.937,4.121-9.807,6.924
				c-3.062,0.234-5.097,1.301-6.269,3c-0.262,0.379-0.493,0.8-0.87,1.067c-0.932,0.661-2.211,0.101-3.352,0.148
				c-1.965,0.08-3.609,2.007-5.556,1.734c-0.55-0.078-1.056-0.329-1.583-0.499c-1.355-0.444-2.878-0.35-4.17,0.254
				c-1.928-2.94-2.265-5.44-2.437-7.952c1.878-1.593,3.234-2.693,3.74-4.131c0.283-0.805,0.311-1.677,0.276-2.53
				c-0.042-1.04-0.179-2.099-0.648-3.029c-0.467-0.927-1.318-1.713-2.344-1.881c-0.078-6.722-1.824-13.292-6.892-16.472
				c-3.198-2.008-7.207-2.294-10.954-1.829c-2.068,0.255-4.183,0.758-5.823,2.042c-1.663,1.3-2.663,3.269-3.371,5.258
				c-1.368,3.84-1.824,8.001-1.323,12.047c-2.349,2.575-2.873,5.185-2.237,7.383c0.636,2.198,2.265,4.001,4.15,5.297
				c0.355,3.724,0.989,6.833,1.941,9.843c-3.583,3.25-6.099,6.254-9.612,7.288c-1.759,0.517-3.623,0.49-5.445,0.688
				c-5.613,0.615-11.317,3.973-12.941,9.381c-0.579,1.933-0.651,4.095-1.843,5.723c-0.656,0.895-1.593,1.539-2.325,2.374
				c-2.616,2.986-2.048,7.528-3.322,11.288c-0.779,2.302-2.255,4.303-3.212,6.537c-0.956,2.235-1.318,4.988,0.083,6.975
				c-1.749,6.317-3.976,12.617-5.831,19.025c-1.056,3.647-1.998,7.424-1.617,11.201c0.373,3.682,1.983,7.124,3.83,10.329
				c4.415,7.66,10.339,14.447,17.331,19.856c-0.567,3.227-0.805,6.598-0.815,10h70.054l-0.587-16.379
				c2.821-2.398,4.171-6.158,4.526-9.844c0.355-3.687-0.166-7.391-0.46-11.084c-1.315-16.429,1.832-33.035-0.177-49.393
				c1.323-1.549,0.591-3.002,1.035-4.098c0.164-0.403,0.477-0.726,0.753-1.064c0.883-1.077,1.451-2.409,1.617-3.794
				c0.099-0.833,0.057-1.681,0.197-2.506c0.5-2.948,3.166-5.032,4.305-7.796c9.36-8.813,16.782-18.104,21.26-28.803
				c0.9-2.144,1.69-4.367,3.028-6.272c0.802-1.145,1.819-2.211,2.141-3.573C787.323,7.711,785.322,5.357,783.477,3.505z"/>
		</g>
		<path style="clip-path:url(#SVGID_00000103258758012897263300000013766208051115736720_);fill:#919191;" d="M72.325,370.45
			c1.043,1.506,0.719,3.885,2.242,4.912c3.273,7.812,0.916,16.544,3.013,24.503c0.856,3.244,2.429,6.265,3.285,9.511
			c1.015,3.861,0.976,7.91,0.934,11.902c-0.083,7.625-0.166,15.251-0.25,22.877h69.033c1.403-9.881,1.414-19.917,1.4-29.906
			c-0.011-9.319-0.023-18.639-0.034-27.958c-0.002-1.884-0.003-3.779,0.337-5.632c0.303-1.645,0.869-3.228,1.433-4.803
			c0.275-0.768,0.55-1.536,0.825-2.304c0.106-0.294,0.212-0.589,0.317-0.882c0.708-1.977,1.417-3.952,2.123-5.929
			c2.911-2.388,4.78-2.966,6.456-3.934c2.115-1.223,3.84-3.021,5.898-4.336c1.643-1.051,3.482-1.785,5.05-2.943
			c1.466-1.083,2.645-2.502,3.809-3.906c0.615-0.742,1.246-1.513,1.524-2.435c0.639-2.121-0.727-4.276-2.024-6.07
			c-3.586-4.967-7.171-9.932-10.759-14.899c-3.512-4.105-7.28-8.727-11.05-13.347c-1.757-2.152-3.54-4.352-4.56-6.937
			c-0.833-2.112-1.16-4.48-2.548-6.278c-1.29-1.672-3.307-2.593-5.274-3.366c-1.054-0.415-2.366-0.768-3.226-0.029
			c-0.229,0.197-0.412,0.464-0.69,0.583c-0.392,0.166-0.838-0.013-1.24-0.158c-1.178-0.423-2.546-0.527-3.648,0.072
			c-1.101,0.597-1.783,2.038-1.248,3.172c-0.54-0.19-1.225-0.361-1.892-0.223c-0.665,0.138-1.298,0.686-1.293,1.366
			c0.007,1.01,1.214,1.472,2.074,2.004c2.417,1.493,2.813,4.871,4.699,6.999c2.403,2.717,6.641,2.842,9.561,4.988
			c2.338,1.717,3.573,4.515,4.707,7.183l8.356,19.647c-1.368,0.342-2.632,0.654-3.843,1.121c-1.211,0.467-2.392,1.114-3.2,2.125
			c-1.285-1.495-2.631-2.159-3.877-2.27c-1.248-0.111-2.5,0.173-3.75,0.094c-0.685-0.041-1.367-0.192-2.051-0.143
			c-0.87,0.064-1.736,0.444-2.587,0.257c-1.15-0.255-1.938-1.484-3.109-1.606c-0.978-0.103-1.877,0.612-2.86,0.617
			c-0.968,0.005-1.788-0.661-2.675-1.046c-1.492-0.651-3.311-0.478-4.653,0.439c-1.494-3.438-1.666-5.634-1.837-7.83
			c0.392-1.804,1.02-2.629,1.433-3.568c0.415-0.939,0.6-2.009,0.322-2.997c-0.277-0.988-1.079-1.858-2.087-2.035
			c-0.223-3.521-0.568-6.573-1.638-9.402c-1.07-2.828-2.925-5.432-5.518-6.988c-1.263-0.756-2.673-1.251-4.114-1.558
			c-5.037-1.072-10.62,0.29-14.336,3.857c-3.716,3.566-5.292,9.326-3.553,14.174c-1.461,0.952-2.208,2.097-2.359,3.265
			c-0.151,1.171,0.205,2.354,0.717,3.415c0.516,1.062,1.188,2.04,1.731,3.086c-0.047,1.899,0.12,3.794,0.475,5.653
			c-2.039-0.05-3.5,0.472-4.755,1.302c-0.573,0.377-1.124,0.826-1.79,0.989c-1.892,0.465-3.753-1.534-5.639-1.045
			c-0.983,0.254-1.874,1.168-2.847,0.875c-0.532-0.161-0.89-0.646-1.339-0.971c-1.105-0.802-2.639-0.573-3.936-0.146
			c-0.454,0.148-0.935,0.319-1.397,0.197c-0.394-0.104-0.701-0.404-1.018-0.659c-1.72-1.383-4.279-1.616-6.218-0.566
			c-3.169-0.781-5.927-1.508-8.53-2.606c-0.854-0.361-1.731-0.794-2.274-1.547c-1.046-1.454-0.485-3.469,0.143-5.146
			c2.722-7.284,5.964-14.361,9.205-21.428c4.715-0.656,8.849-2.232,11.902-5.024c1.189-0.35,2.208-0.652,2.954-1.328
			c0.747-0.677,1.157-1.785,0.812-2.73c-0.09-0.247-0.231-0.482-0.439-0.641c-0.487-0.374-1.176-0.259-1.775-0.124
			c-0.643-2.082-1.121-3.81-1.965-5.336c-0.103-0.187-0.213-0.373-0.376-0.511c-0.521-0.444-1.311-0.226-1.951,0.016
			c-1.542-0.343-2.699-0.169-3.622,0.402c-0.2,0.124-0.399,0.268-0.63,0.311c-0.327,0.057-0.646-0.098-0.966-0.176
			c-0.664-0.163-1.404,0.026-1.908,0.487c-0.327,0.296-0.574,0.706-0.981,0.877c-0.369,0.156-0.791,0.08-1.193,0.101
			c-1.435,0.073-2.484,1.354-3.231,2.58c-1.153,1.894-2.063,3.936-2.696,6.06c-2.741,3.592-5.071,6.723-7.557,9.721
			c-4.737,5.715-10.066,10.98-14.136,17.187c-1.516,2.315-2.87,4.798-3.426,7.51c-0.556,2.71-0.236,5.697,1.365,7.956
			c2.466,3.485,7.124,4.402,10.995,6.205c6.036,2.81,10.835,8.257,17.332,9.713c-0.02,0.54,0.847,2.164,1.311,2.442
			c1.054,0.633,2.3,0.828,3.491,1.139C70.395,368.946,71.623,369.439,72.325,370.45z"/>
		<path style="clip-path:url(#SVGID_00000103258758012897263300000013766208051115736720_);fill:#919191;" d="M579.773,179.322
			c-0.039,4.95,0.434,10.851,4.733,13.308c0.664,8.522-1.926,17.412-0.093,25.857h69.78c0.015-5.942-0.098-11.885-0.393-17.82
			c4.592-5.151,6.759-10.398,7.336-15.566c0.577-5.167-0.23-10.375-0.833-15.54c-1.709-14.609-1.809-29.404-0.294-44.035
			c1.335-4.044,3.396-7.006,5.172-10.128c0.693-1.214,1.348-2.471,1.642-3.837c0.705-3.271-0.741-6.677-0.28-9.989
			c0.903-4.346,2.176-7.156,3.449-9.967c0.563-1.239,1.129-2.5,1.33-3.848c0.299-2.008-0.237-4.038-0.84-5.976
			c-4.022-12.886-11.372-24.712-21.142-34.026c-3.128-3.105-5.359-6.186-6.956-9.608c-1.597-3.42-2.539-7.245-2.03-10.986
			c0.422-3.1,1.813-6.013,2.153-9.122c0.08-0.726,0.075-1.538-0.408-2.089c-0.481-0.55-1.588-0.513-1.777,0.192
			c-1.465-1.775-2.728-3.191-4.188-4.357c-0.828-0.664-1.736-1.255-2.746-1.585c-1.013-0.328-2.142-0.374-3.125,0.029
			c-0.68-1.189-1.642-1.631-2.512-1.455c-0.393,0.08-0.794,0.31-0.926,0.689c-0.169,0.481,0.137,1.009,0.053,1.513
			c-1.088-0.299-1.87-0.338-2.553-0.098c-0.135,0.046-0.269,0.107-0.368,0.207c-0.114,0.112-0.174,0.264-0.212,0.417
			c-0.148,0.606,0.064,1.248,0.406,1.766c0.344,0.52,0.814,0.938,1.252,1.38c1.179,1.182,2.172,2.55,2.934,4.035
			c-1.009-0.232-1.804-0.451-2.55-0.326c-0.554,0.091-1.123,0.431-1.241,0.977c-0.126,0.566,0.262,1.106,0.63,1.551
			c0.901,1.088,1.843,2.162,2.493,3.415c0.648,1.255,0.981,2.737,0.586,4.092c-0.164,3.867-0.705,7.898,0.611,11.556
			c0.746,2.073,2.051,3.894,3.392,5.641c1.759,2.295,3.62,4.524,5.075,7.022c1.708,2.929,2.82,6.159,4.085,9.303
			c3.221,8.007,7.489,15.591,12.663,22.497c-2.63,2.343-4.626,4.266-6.139,6.515c-2.27-0.402-4.346-0.094-5.71,1.102
			c-0.198,0.173-0.392,0.372-0.646,0.447c-0.459,0.139-0.931-0.169-1.262-0.518c-0.329-0.349-0.612-0.768-1.051-0.965
			c-1.225-0.549-2.459,0.99-3.801,0.942c-0.41-0.014-0.798-0.18-1.2-0.258c-1.175-0.231-2.462,0.354-3.061,1.389
			c-0.555-1.428-1.275-3.196-0.516-4.544c0.274-0.49,0.716-0.86,1.054-1.309c0.618-0.823,0.856-1.869,0.997-2.892
			c0.159-1.14,0.214-2.313-0.046-3.435c-0.26-1.123-0.862-2.201-1.809-2.854c0.944-5.124-1.177-9.38-2.108-13.553
			c-0.279-1.248-0.456-2.534-0.965-3.705c-1.376-3.169-4.866-4.871-8.23-5.664c-2.19-0.515-4.595-0.736-6.602,0.279
			c-0.239-0.784,0.05-1.512,0.288-2.256c0.308-0.962,0.515-2.066-0.002-2.934c-0.151-0.251-0.385-0.482-0.677-0.513
			c-0.194-0.02-0.385,0.054-0.568,0.123c-0.555,0.215-1.115,0.433-1.672,0.648c-0.961-1.807-1.775-2.785-2.829-3.207
			c-0.169-1.953,0.295-3.73,0.997-5.408c0.393-0.947,0.865-1.866,1.138-2.856c0.274-0.988,0.335-2.078-0.084-3.013
			c-0.062-0.137-0.137-0.274-0.26-0.358c-0.249-0.169-0.596-0.062-0.835,0.121c-0.239,0.183-0.422,0.434-0.68,0.593
			c-0.351-1.026,0.052-1.652-0.025-2.311c-0.087-0.753-0.896-1.341-1.64-1.189c-0.554,0.112-0.981,0.55-1.3,1.015
			c-0.319,0.465-0.57,0.979-0.96,1.387c-0.189-0.773-0.1-1.36-0.041-1.951c0.053-0.563,0.005-1.266-0.507-1.505
			c-0.502-0.235-1.068,0.159-1.44,0.568c-0.538,0.591-0.974,1.275-1.285,2.01c-0.582-0.712-0.522-1.15-0.67-1.545
			c-0.148-0.394-0.577-0.719-0.977-0.596c-0.239,0.073-0.41,0.276-0.556,0.475c-0.988,1.35-1.458,3-1.816,4.633
			c-0.739,3.362-1.075,6.812-0.999,10.254c0.034,1.458,0.132,2.965-0.365,4.336c-0.589,1.622-1.953,2.877-2.527,4.505
			c-3.974,6.595-11.656,10.407-16.342,16.762c-2.498,3.387-4.06,7.384-6.506,10.81c-1.636,2.292-3.67,4.334-4.861,6.884
			c-1.855,3.974-1.399,8.719,0.235,12.789c1.635,4.069,4.339,7.603,7.01,11.082c-0.403,3.736,1.072,6.316,2.742,8.349
			c1.951,2.375,4.259,4.458,6.818,6.159C580.042,146.51,579.905,162.93,579.773,179.322z"/>
		<path style="clip-path:url(#SVGID_00000103258758012897263300000013766208051115736720_);fill:#919191;" d="M301.199,352.526
			c-1.873-5.891-4.443-11.549-6.163-17.486c-2.781-7.834-5.044-14.753-7.307-21.672c-0.805-2.458-1.615-4.93-2.787-7.237
			c-1.259-2.476-2.919-4.728-4.7-6.859c-1.822-2.18-3.786-4.256-6.023-6.005c-1.967-1.539-4.124-2.813-6.277-4.079
			c-3.498-2.061-6.994-4.123-10.492-6.184c-2.561-1.508-5.139-3.029-7.368-4.998c-1.376-2.533-1.615-4.786-1.858-7.041
			c1.804-0.818,3.049-2.74,3.06-4.72c0.013-1.982-1.21-3.916-3.003-4.757c1.21-5.839-0.652-12.034-4.742-16.126
			c-1.245-1.246-2.702-2.315-4.357-2.915c-1.856-0.674-3.875-0.732-5.845-0.631c-2.553,0.132-5.109,0.521-7.518,1.376
			c-1.534,0.543-3.024,1.292-4.202,2.418c-1.271,1.214-2.11,2.798-2.927,4.354c-0.996,1.894-2.004,3.827-2.393,5.932
			c-0.589,3.197,0.306,6.465,1.318,9.555c-0.987,1.993-1.301,3.791-0.841,5.383c0.462,1.593,1.685,2.946,3.225,3.563
			c0.545,3.77,3,6.944,5.372,9.924c-1.731,2.971-4.975,3.049-6.828,1.32c-0.757-0.706-1.365-1.695-2.374-1.923
			c-0.43-0.096-0.896-0.038-1.303-0.207c-0.319-0.133-0.568-0.39-0.781-0.664c-1.456-1.879-1.602-4.721-3.54-6.101
			c-0.628-0.446-1.381-0.683-2.009-1.131c-1.707-1.215-2.025-3.558-2.556-5.585c-0.586-2.239-1.602-4.363-2.977-6.224
			c-1.191-1.612-2.657-3.044-3.537-4.843c-1.153-2.356-1.327-5.343-3.351-7.009c-0.641-0.525-1.435-0.882-1.947-1.531
			c-0.714-0.905-0.727-2.152-0.984-3.275c-0.257-1.123-1.056-2.348-2.206-2.276c-0.612-1.36-0.737-2.52-0.862-3.682
			c-0.05-0.457-0.088-0.96,0.181-1.331c0.267-0.366,0.745-0.488,1.16-0.667c1.723-0.742,2.621-2.979,1.891-4.705
			c-0.142-0.335-0.338-0.698-0.218-1.041c0.114-0.321,0.459-0.485,0.726-0.696c0.792-0.623,0.926-1.923,0.275-2.694
			c-0.247-0.296-0.59-0.517-0.769-0.861c-0.402-0.765,0.172-1.65,0.377-2.489c0.348-1.427-0.591-3.046-2.001-3.452
			c-0.288-0.083-0.641-0.169-0.725-0.456c-0.054-0.19,0.041-0.387,0.099-0.577c0.337-1.088-0.654-2.226-1.765-2.478
			c-1.113-0.251-2.26,0.124-3.335,0.504c-2.341,0.83-4.84,1.853-6.111,3.987c-1.529,2.567-0.781,5.815-0.125,8.729
			c1.472,6.555,2.237,13.271,2.276,19.988c-2.133,2.605-1.619,6.83-0.724,10.388c2.073,8.23,5.353,16.1,8.619,23.934
			c1.375,3.299,2.751,6.599,4.127,9.898c1.886,4.523,3.828,9.135,7.08,12.801c4.887,9.62,1.76,21.71,4.947,32.14
			c2.204,7.212,7.451,13.85,6.706,21.355c-0.433,4.362-2.907,8.655-1.791,12.895c0.461,1.747,1.508,3.314,1.834,5.092
			c0.361,1.97-0.2,3.973-0.454,5.961c-1.195,9.306,4.3,18.834,3.419,27.868h79.006c-0.721-9.461-1.443-18.922-2.166-28.382
			c5.322-4.251,9.228-10.053,10.411-16.121C304.246,364.711,303.073,358.415,301.199,352.526z"/>
		<path style="clip-path:url(#SVGID_00000103258758012897263300000013766208051115736720_);fill:#919191;" d="M569.61,122.995
			c-1.349-6.28-3.958-11.042-6.714-15.467c-3.905-6.267-8.234-12.269-12.95-17.951c-1.29-1.555-2.618-3.098-3.641-4.842
			c-1.856-3.16-2.629-6.82-3.373-10.409c-0.425-2.042-0.848-4.082-1.271-6.124c-0.125-0.605-0.309-1.287-0.857-1.567
			c-0.861-0.439-1.886,0.927-1.225,1.63c-2.325-2.05-4.144-4.178-6.246-5.976c-0.597-0.511-1.401-1.022-2.113-0.691
			c-0.942,0.439-0.765,1.814-0.438,2.8c-0.748-0.081-1.365,0.693-1.402,1.445c-0.037,0.75,0.329,1.456,0.683,2.117
			c-0.992-0.339-1.905,0.953-1.664,1.975c0.239,1.022,1.133,1.733,1.944,2.398c2.27,1.858,4.321,3.983,6.098,6.317
			c-0.055,1.827-0.081,3.763,0.727,5.434c0.553,1.142,1.459,2.071,2.206,3.099c1.64,2.263,2.491,4.983,3.407,7.622
			c2.904,8.366,6.721,16.414,11.361,23.955c-2.955,1.533-5.076,3.885-6.005,6.657c-0.566,1.694-0.879,3.758-2.461,4.585
			c-1.126,0.587-2.709,0.403-3.448,1.437c-0.259,0.358-0.356,0.807-0.589,1.183c-0.579,0.931-1.79,1.181-2.764,1.685
			c-1.383,0.716-2.398,2.102-2.663,3.638c-1.269-0.156-1.845-0.241-2.421-0.325c-0.67-2.504-0.696-4.333-0.724-6.163
			c-0.008-0.55-0.015-1.11,0.142-1.637c0.218-0.74,0.732-1.349,1.142-2.001c0.685-1.085,1.1-2.361,1.053-3.644
			c-0.049-1.282-0.587-2.564-1.557-3.404c0.127-4.637-1.128-8.788-3.638-11.976c-2.51-3.185-6.254-5.377-10.263-6.003
			c-1.394-0.218-2.834-0.252-4.204,0.081c-1.365,0.334-2.621,1.018-3.758,1.842c-4.549,3.291-7.267,8.963-6.981,14.569
			c-1.528,0.765-2.354,1.341-2.672,2.218c-0.185,0.508-0.177,1.059-0.166,1.599c0.034,1.894,0.081,3.81,0.576,5.641
			c0.493,1.829,1.487,3.592,3.065,4.642c0.013,1.219,0.016,2.52,0.02,3.82c-0.916,0.493-1.306,0.737-1.726,0.784
			c-0.794,0.094-1.497-0.522-1.949-1.184c-0.451-0.66-0.784-1.428-1.409-1.928c-0.625-0.499-1.695-0.579-2.123,0.098
			c-1.243-1.826-2.857-3.854-5.065-3.813c-0.423,0.007-0.849,0.094-1.269,0.033c-2.037-0.299-2.359-3.599-4.355-4.108
			c-0.592-0.151-1.238-0.015-1.819-0.21c-1.295-0.438-1.59-2.211-2.724-2.974c-0.402-0.27-0.888-0.395-1.28-0.682
			c-0.478-0.35-0.763-0.898-1.031-1.427c-0.885-1.738-1.768-3.477-2.652-5.216c2.759-6.592,6.674-12.788,10.588-18.981
			c1.279-2.911,3.13-4.263,5.188-4.663c1.389-0.27,2.847-0.129,4.207-0.519c1.928-0.553,3.4-2.091,4.663-3.649
			c1.261-1.559,2.457-3.244,4.162-4.302c0.69-0.428,1.575-0.971,1.441-1.772c-0.14-0.856-1.3-1.041-2.152-0.882
			c-1.781,0.335-3.444,1.28-4.643,2.644c-1.435-1.222-2.074-2.432-2.242-3.755c-0.205-1.622,0.32-3.241,0.896-4.77
			c1.049-2.787,2.292-5.501,3.719-8.115c0.247-0.454,0.504-0.916,0.584-1.427c0.078-0.509-0.058-1.088-0.472-1.396
			c-0.415-0.309-1.119-0.203-1.315,0.275c0.115-0.83,0.062-1.941-0.745-2.164c-0.877-0.244-1.493,0.854-2.313,1.246
			c0.21-0.363-0.202-0.833-0.623-0.833c-0.42,0-0.776,0.294-1.071,0.592c-0.859,0.87-1.534,1.918-1.972,3.059
			c-0.06-1.038-0.729-1.557-1.262-1.427c-0.534,0.13-0.888,0.626-1.178,1.093c-1.04,1.669-1.902,3.439-2.764,5.206
			c-0.885,1.819-1.772,3.636-2.658,5.455c-1.168,2.396-2.351,4.839-2.771,7.473c-8.221,8.971-16.206,17.922-23.319,27.557
			c-1.754,2.374-3.527,5.019-3.454,7.97c0.093,3.654,2.943,6.563,4.503,9.869c-0.937,1.858-0.085,4.373,1.243,6.07
			c1.329,1.695,3.117,3.107,3.89,5.118c0.888,2.312,0.277,5.037,1.36,7.263c0.895,1.84,2.85,3.106,3.348,5.091
			c0.254,1.009,0.09,2.086,0.324,3.099c0.285,1.248,1.137,2.276,1.964,3.254c2.224,2.637,4.45,5.273,6.675,7.908
			c-4.596,14.829-7.443,29.686-8.535,44.672c-0.272,3.737-0.35,7.796,1.806,10.86c0.623,0.885,1.43,1.681,1.752,2.715
			c0.314,1.004,0.124,2.087-0.052,3.124c-0.933,5.479-1.399,11.032-1.447,16.589h85.709c-0.678-5.374-1.17-10.77-1.467-16.179
			c4.433-4.427,6.713-9.757,6.922-14.831c0.211-5.076-1.276-10.046-2.543-14.966c-2.54-9.859-4.246-19.933-5.094-30.08
			c-0.773-5.528,2.214-7.349,3.68-10.087c0.774-1.445,1.095-3.129,0.905-4.757c-0.063-0.548-0.179-1.121,0.021-1.633
			c0.223-0.574,0.782-0.929,1.254-1.323c1.515-1.263,2.343-3.301,2.138-5.261c-0.098-0.937-0.415-1.86-0.332-2.798
			c0.176-1.952,2.04-3.55,1.864-5.504c-0.049-0.545-0.259-1.066-0.322-1.609c-0.153-1.314,0.553-2.553,1.062-3.775
			C570.91,130.062,570.933,126.268,569.61,122.995z"/>
		<path style="clip-path:url(#SVGID_00000103258758012897263300000013766208051115736720_);fill:#919191;" d="M477.855,193.345
			c-1.258-7.33-2.514-14.659-3.772-21.989c-0.467-2.719-1.013-5.609-2.879-7.615c-1.464-1.572-3.532-2.37-5.493-3.208
			c-4.395-1.879-8.595-4.192-12.786-6.504c-2.737-1.508-5.472-3.015-8.208-4.523c-1.188-4.44-1.256-8.603-0.975-12.738
			c0.028-0.414,0.067-0.851,0.304-1.191c0.304-0.437,0.853-0.604,1.325-0.841c1.255-0.635,2.122-1.999,2.178-3.426
			c0.057-1.425-0.701-2.854-1.902-3.59c-0.088-4.291-0.453-7.445-1.892-10.164c-1.403-2.646-3.808-4.721-6.6-5.697
			c-2.596-5.323-7.847-9.236-13.325-8.779c-1.794,0.151-3.529,0.74-5.176,1.483c-1.404,0.635-2.781,1.405-3.83,2.546
			c-2.008,2.183-2.521,5.454-2.037,8.405c0.482,2.95,1.835,5.667,3.171,8.331c0.319,4.141-1.415,8.012-0.681,11.739
			c0.469,2.381,1.982,4.53,4.047,5.747c-0.348,2.834-0.302,5.458-0.065,8.062c-4.004,0.895-5.293,5.893-8.744,7.24
			c-0.923,0.361-1.938,0.426-2.856,0.8c-1.175,0.479-2.098,1.419-3.129,2.167c-3.385,2.463-7.965,2.883-11.129,5.634
			c-2.204,1.917-3.439,4.734-4.382,7.526c-2.643,7.818-3.537,16.244-2.596,24.457c-2.29,6.066-3.426,10.615-3.579,15.259
			c-0.152,4.645,0.74,9.434,3.256,13.312c2.516,3.876,6.81,6.705,11.376,6.702c-1.626,8.183,1.067,15.979,0.595,23.687
			c-0.327,5.338-2.165,10.515-2.243,15.861c-0.072,4.761,1.255,9.449,1.274,14.21c0.029,6.87-2.55,14.219-0.466,20.493h74.508
			c0.233-13.07-0.886-37.17-1.632-47.286c-0.928-12.559-1.854-25.116-2.782-37.673c2.921-1.698,5.414-3.436,6.233-5.87
			c1.533-0.88,2.24-1.54,2.756-2.204c2.148-2.762,3.067-6.351,3.199-9.871C479.048,200.318,478.45,196.815,477.855,193.345z"/>
		<path style="clip-path:url(#SVGID_00000103258758012897263300000013766208051115736720_);fill:#919191;" d="M365.779,238.879
			c-0.67-4.174-2.924-7.939-5.075-11.581c-1.293-2.194-2.706-4.335-4.423-6.218c-6.831-7.478-17.437-9.909-28.205-13.124
			c0.958-2.767,1.475-5.688,1.961-8.801c1.416-1.411,2.629-3.145,2.915-5.124s-0.56-4.213-2.515-6.029
			c0.534-4.444,1.013-9.207-1.066-13.17c-0.873-1.662-2.158-3.082-3.6-4.284c-2.781-2.317-6.278-3.875-9.898-3.957
			c-4.416-0.101-8.753,2.055-11.617,5.418c-2.862,3.363-4.288,7.836-4.281,13.777c-1.802,1.224-3,3.297-3.158,5.468
			c-0.16,2.174,0.723,4.398,2.328,5.869c0.395,0.361,0.828,0.677,1.967,1.137c-0.384,3.053-0.114,6.187,0.86,9.546
			c-2.286,0.464-4.734,0.084-6.772-1.049c-1.756-0.978-3.556-2.558-5.491-2.009c-1.319,0.376-2.422,1.719-3.765,1.437
			c-0.549-0.116-0.998-0.494-1.462-0.807c-1.938-1.306-4.357-1.593-6.62-2.174c-4.634-1.191-8.797-3.715-13.537-6.073
			c1.503-5.141,3.005-10.282,4.506-15.423c0.853-2.923,1.673-6.222,0.084-9.423c1.04-4.385,2.365-8.7,3.963-12.911
			c0.523-1.376,1.092-2.774,2.079-3.866c1.213-1.347,2.93-2.099,4.436-3.102c2.468-1.642,4.429-4.033,6.001-7.86
			c0.514-1.114,1.255-2.125,1.622-3.295c0.367-1.169,0.255-2.62-0.704-3.385c-0.851-0.679-2.062-0.604-3.835-0.339
			c0.077-1.378-1.672-2.475-2.879-1.807c-0.319,0.176-0.589,0.44-0.934,0.554c-1.328,0.438-2.818-1.549-3.944-0.714
			c-0.611,0.453-0.888,1.633-1.613,1.4c-0.264-0.084-0.42-0.347-0.613-0.543c-0.692-0.705-2.086-0.424-2.449,0.495
			c-0.11,0.273-0.156,0.604-0.402,0.765c-0.367,0.238-0.822-0.088-1.231-0.246c-0.749-0.295-1.631,0.024-2.202,0.593
			c-0.569,0.569-0.881,1.343-1.125,2.11c-0.947,2.969-1.088,6.19-1.09,9.08c-0.216,2.814-0.91,5.59-2.042,8.177
			c-0.541,1.231-1.18,2.424-1.604,3.701c-0.523,1.585-0.703,3.273-1.835,4.813c-2.336,1.079-2.923,4.04-3.548,6.537
			c-1.607,6.414-5.269,12.098-7.744,18.23c-0.822,2.038-1.521,4.167-1.585,6.363c-0.09,3.022,1.035,5.981,2.662,8.53
			c1.626,2.548,3.937,4.526,5.809,6.409c4.998,5.033,8.898,11.149,14.518,15.472c1.538,1.183,3.167,2.275,4.486,3.697
			c2.976,3.203,4.068,7.726,4.401,12.083c0.334,4.358,0.026,8.764,1.787,13.819c0.139,9.908,0.279,19.837-0.605,29.706
			c-0.539,6.022-1.461,12.021-1.532,18.065c-0.072,6.046,0.752,12.232,3.55,18.112c-0.352,6.282-0.151,12.587,0.535,18.84h72.872
			c-0.303-5.97-1.008-12.092-1.633-19.692c3.402-6.669,0.622-15.698,5.322-21.523c2.57-3.187,6.99-4.772,8.77-8.46
			c0.939-1.945,0.98-4.183,1.363-6.311c0.449-2.492,1.382-4.871,1.976-7.333C373.05,265.488,367.893,252.074,365.779,238.879z"/>
		<path style="clip-path:url(#SVGID_00000103258758012897263300000013766208051115736720_);fill:#919191;" d="M-3.609,469.696
			c0,0,496.671-258,571.879-293.478S750,92.739,750,92.739v376.957H-3.609z"/>
		<path style="clip-path:url(#SVGID_00000103258758012897263300000013766208051115736720_);fill:#919191;" d="M152.891,24.785
			c-0.815,0.143-1.361,0.921-1.218,1.736l0.023,0.13c-4.672,3.493-20.366,16.432-23.24,34.65
			c-3.384,21.445-3.581,39.552-15.808,53.613c-12.227,14.061-12.43,38.92,3.836,56.915c0,0,5.189-24.74,23.371-34.287
			c14.554-7.641,22.906-25.363,25.666-32.144l33.218,189.214c0.143,0.815,0.921,1.361,1.736,1.218
			c0.815-0.143,1.361-0.921,1.218-1.736l-47.065-268.09C154.485,25.187,153.707,24.642,152.891,24.785z"/>
	</g>
	<g>
		<defs>
			<rect id="SVGID_00000091736589796172825650000007116823562516633259_" width="750" height="500"/>
		</defs>
		<clipPath id="SVGID_00000180344066434679685280000005324308796915055515_">
			<use xlink:href="#SVGID_00000091736589796172825650000007116823562516633259_"  style="overflow:visible;"/>
		</clipPath>
		<path style="clip-path:url(#SVGID_00000180344066434679685280000005324308796915055515_);fill:#2B2B2B;" d="M776.616,380.584
			c-0.649-1.777-1.412-3.528-1.779-5.383c-0.442-2.232-0.292-4.53-0.214-6.801c0.212-6.216-0.143-12.448-1.025-18.604
			c-0.402-2.8-0.912-5.605-0.842-8.434c0.056-2.313,0.502-4.594,0.801-6.888c0.51-3.913,0.594-7.869,0.515-11.813
			c-0.186-9.413-1.305-18.854-0.322-28.217c0.397-3.761,1.012-7.977-1.309-10.961c1.059-7.002,0.513-12.472-1.235-17.531
			c-0.468-1.354-1.023-2.685-1.344-4.08c-0.359-1.559-0.423-3.167-0.57-4.759c-0.786-8.546-4.678-16.412-9.33-23.625
			c-0.778-1.205-1.455-2.398-2.241-3.528c-0.927-1.331-1.886-2.749-2.001-4.368c-0.117-1.604,0.615-3.129,0.993-4.69
			c0.41-1.691,0.406-3.479-0.011-5.165c-0.192-0.773-0.479-1.546-1.019-2.129c-0.542-0.583-1.376-0.942-2.147-0.739
			c-0.583,0.152-1.359,0.53-1.656,0.008c-0.086-0.152-0.086-0.337-0.149-0.5c-0.214-0.592-1.025-0.643-1.647-0.54
			c-0.622,0.105-1.376,0.216-1.775-0.271c-0.162-0.199-0.224-0.461-0.365-0.675c-0.523-0.794-1.768-0.547-2.55-0.008
			c-0.781,0.542-1.51,1.313-2.46,1.337c-0.448,0.011-0.888-0.152-1.331-0.105c-1.157,0.124-1.677,1.495-1.894,2.638
			c-0.446,2.354-0.543,5.115,1.17,6.79c-1.16,1.824-1.452,3.065-1.44,4.302c0.007,0.643,0.103,1.312,0.468,1.839
			c0.26,0.376,0.634,0.652,1.002,0.921c1.216,0.893,2.435,1.785,3.654,2.678c3.789,2.674,5.382,7.706,5.891,12.45
			c0.508,4.746,0.203,9.616,1.493,14.21c0.393,1.393,0.931,2.768,1.012,4.214c0.186,3.338-2.082,6.48-1.753,9.804
			c-0.468,0.827-1.6,1.081-2.608,1.36c-1.606,0.442-3.148,1.122-4.56,2.008c-1.525-1.907-1.653-4.118-1.781-6.329
			c1.831-0.724,3.285-2.243,4.144-4.015c0.861-1.771,1.158-3.776,1.096-5.745c-0.039-1.354-0.453-2.963-1.743-3.375
			c0.461-4.863-0.252-9.55-1.73-13.986c-0.822-2.467-1.94-4.945-3.928-6.621c-1.583-1.337-3.586-2.053-5.557-2.696
			c-2.215-0.724-4.475-1.391-6.801-1.504c-4.045-0.196-8.025,1.314-11.406,3.541c-2.77,1.826-5.274,4.223-6.589,7.27
			c-2.104,4.876-0.861,10.477,0.463,15.62c-1.766,2.411-1.871,4.635-1.277,6.549c0.592,1.914,1.798,3.573,3.063,5.126
			c0.951,4.402,2.651,8.65,5.25,12.256c-5.6,5.205-11.651,9.874-18.822,10.853c-1.51,0.205-3.08,0.25-4.47,0.878
			c-1.386,0.628-2.46,1.773-3.492,2.892c-4.25,4.595-8.757,9.804-8.843,16.066c-0.068,5.013,2.787,9.81,2.268,14.797
			c-0.165,1.611-0.686,3.2-0.562,4.817c0.162,2.106,1.399,4,1.69,6.092c0.179,1.282-0.006,2.593,0.164,3.875
			c0.169,1.284,0.82,2.64,2.042,3.071c-0.293,15.287,0.643,31.165,2.962,46.838c0.474,3.197,1.006,6.429,0.669,9.642
			c-0.333,3.173-1.405,6.673-1.262,9.75h87.093c-0.212-3.358-0.316-6.726-0.308-10.092c2.023,0.651,2.873-1.476,2.937-3.059
			C779.544,391.987,778.624,386.088,776.616,380.584z"/>
		<path style="clip-path:url(#SVGID_00000180344066434679685280000005324308796915055515_);fill:#2B2B2B;" d="M263.205,219.937
			c0.216-0.908,0.226-1.917-0.25-2.718c-0.476-0.801-1.548-1.29-2.39-0.886c0.335-0.729,0.113-1.669-0.511-2.173
			c-0.621-0.503-1.588-0.523-2.23-0.043c-0.531-0.737-0.456-1.782-0.971-2.531c-0.603-0.88-1.909-1.078-2.88-0.632
			c-0.971,0.444-1.633,1.39-2.01,2.389c-0.981-4.317-1.1-8.686-1.312-13.052c-0.042-0.902-0.107-1.857-0.622-2.597
			c-0.119-0.174-0.268-0.337-0.464-0.414c-0.436-0.172-0.91,0.129-1.233,0.466c-1.217,1.268-1.558,3.116-1.843,4.85l-1.99,12.083
			c-1.102-1.936-2.604-3.338-4.392-3.994c-0.496-0.182-1.108-0.289-1.506,0.059c-0.634,0.555-0.123,1.574,0.357,2.266
			c4.458,6.426,4.099,15.264,8.463,21.754c1.007,16.788-14.725,31.002-14.291,47.933c0.028,1.086,0.121,2.192-0.149,3.243
			c-0.373,1.453-1.393,2.638-2.351,3.79c-7.052,8.481-12.4,18.374-15.633,28.919c-2.408-0.143-3.966-0.157-5.197,0.341
			c-1.229,0.498-2.236,1.411-3.3,2.204c-0.937,0.696-1.938,1.31-2.808,2.087c-0.63,0.559-1.181,1.199-1.8,1.77
			c-2.224,2.056-5.157,3.134-8.004,4.164c-1.441-2.803-1.33-6.428-1.033-10.039c1.292-2.634,2.426-3.148,3.344-3.818
			c1.841-1.348,2.967-3.627,2.916-5.907c-0.048-2.283-1.271-4.511-3.171-5.778c1.015-6.505,2.018-11.786,0.046-16.402
			c-2.535-5.935-9.373-8.977-15.817-9.361c-8.16-0.49-16.917,2.896-21.103,9.92c-2.85,4.783-3.314,10.685-2.454,16.186
			c-2.666,5.843-1.294,11.581,2.612,14.015c-0.061,2.432-0.121,4.862-0.182,7.294c-1.072-1.962-2.668-3.06-4.283-3.839
			c-1.615-0.779-3.352-1.352-4.777-2.44c-0.965-0.737-1.752-1.683-2.706-2.43c-1.275-0.999-2.842-1.621-4.454-1.774
			c-6.844-12.208-11.827-24.015-15.032-36.314c-3.469-13.308-4.832-27.079-5.484-40.816c-0.218-2.091,1.265-3.762,2.878-4.838
			c1.613-1.076,3.469-1.824,4.85-3.187c3.173-3.136,2.993-8.64,6.258-11.677c0.678-0.63,1.556-1.273,1.54-2.2
			c-0.016-0.729-0.648-1.338-1.35-1.53c-0.704-0.19-1.457-0.042-2.149,0.186c-2.422,0.797-4.491,2.616-5.595,4.914
			c0.16-3.054,0.842-6.002,1.405-8.975c0.456-2.404,0.834-4.86,0.567-7.294c-0.107-0.985-0.349-2.014-1.043-2.721
			c-0.694-0.706-1.96-0.924-2.66-0.226c-0.228-1.512-0.347-2.759-0.777-3.883c-0.2-0.521-0.519-1.064-1.054-1.225
			c-0.48-0.141-0.995,0.067-1.419,0.333c-1.286,0.809-2.184,2.21-2.382,3.716c0.105-0.709-0.424-1.425-1.112-1.623
			c-0.688-0.2-1.463,0.075-1.952,0.599c-0.386,0.416-0.603,0.957-0.791,1.489c-0.45,1.282-0.777,2.609-0.969,3.954
			c-1.927,0.24-2.862,1.058-3.383,2.02c-0.521,0.963-0.706,2.067-0.904,3.142c-0.741,4.036-1.768,8.018-3.068,11.91
			c-0.815,2.438-1.746,4.872-1.982,7.431c-0.238,2.559,0.319,5.326,2.117,7.161c-3.625,22.176,3.467,44.819,6.797,67.425
			c0.856,5.81,1.469,11.685,3.1,17.326c2.636,9.112,7.819,17.252,13.104,25.127c-1.154,5.659,3.356,12.14,7.702,17.339
			c1.409,1.687,2.856,3.407,3.621,5.467c0.622,1.679,0.757,3.492,0.886,5.278c0.359,4.971,0.717,9.972,0.212,14.929
			c-0.339,3.324-1.066,6.628-0.963,9.966c0.105,3.457,1.094,6.816,1.863,10.186c1.369,6.005,2.01,12.168,1.994,18.329h80.833
			c-0.297-4.567-0.569-9.137-0.65-13.711c-0.198-11.415,0.735-22.818,1.665-34.197c0.517-6.331,1.035-12.664,1.552-18.993
			c0.486-5.948,0.94-12.129-1.205-17.696c8.501-18.053,14.339-33.777,18.352-49.955c7.148-19.137,13.554-37.024,13.338-55.55
			c1.907-3.399,2.212-7.3,0.718-10.414c-0.404-0.985-0.291-2.254,0.067-3.453C262.592,221.697,262.989,220.845,263.205,219.937z"/>
		<path style="clip-path:url(#SVGID_00000180344066434679685280000005324308796915055515_);fill:#2B2B2B;" d="M513.851,345.904
			c0.912,0.533,4.878,0.028,4.878,0.028c-0.778,7.32-0.979,14.695-0.662,22.048H598.8l0.276-13.845
			c0.606,0.31,1.283-0.257,1.699-0.799c3.799-4.935,4.596-11.604,3.943-17.798c-0.653-6.196-2.591-12.176-3.714-18.303
			c-1.155-6.309-1.445-12.75-2.514-19.075c-1.073-6.323-3.011-12.685-7.017-17.697c-1.662-6.102-3.154-10.71-4.827-15.25
			c2.052-3.057,1.435-6.161,0.657-8.612c-2.317-7.286-4.632-14.57-6.948-21.857c-1.269-3.992-2.706-8.233-6.011-10.808
			c-3.39-2.64-7.986-2.942-12.278-3.138l-9.877-0.448c-0.509,0.308-2.544-3.1-2.544-3.1c1.478-4.069,1.999-8.482,1.512-12.785
			c1.231-2.585,2.09-3.996,3.13-5.257c0.401-0.484,0.852-1.001,0.872-1.63c0.028-0.785-0.628-1.456-0.661-2.24
			c-0.022-0.562,0.276-1.077,0.452-1.61c0.835-2.488-0.959-5.133-0.736-7.748c0.079-0.953,0.43-1.893,0.296-2.84
			c-0.146-1.018-0.823-1.867-1.253-2.8c-0.969-2.088-0.762-4.722-2.279-6.455c-0.689-0.789-1.654-1.279-2.467-1.944
			c-1.462-1.196-2.406-2.936-3.89-4.105c-2.439-1.922-5.818-1.956-8.922-1.896c-2.21,0.043-4.466,0.097-6.546,0.847
			c-1.995,0.722-3.755,2.082-4.953,3.834c-0.444,0.649-0.876,1.399-1.624,1.64c-0.515,0.166-1.083,0.047-1.612,0.164
			c-1.235,0.27-1.833,1.646-2.24,2.842c-0.677,1.993-1.354,3.984-2.031,5.977c-0.663,1.948-1.336,3.967-1.17,6.019
			c0.245,3.029,2.295,5.804,2.013,8.829c-0.422-1.054-1.182-0.768-1.547-0.255c-0.365,0.515-0.43,1.18-0.45,1.811
			c-0.065,2.153,0.28,4.351,1.263,6.267c0.983,1.916,2.646,3.529,4.691,4.205c0.967,4.209,1.334,7.635,1.703,11.061
			c-1.251,1.405-1.904,1.75-2.617,1.813c-0.819,0.069-1.616-0.241-2.421-0.408c-0.805-0.164-1.747-0.14-2.317,0.454
			c-0.369,0.381-0.596,0.997-1.121,1.069c-0.29,0.038-0.568-0.116-0.817-0.268c-1.17-0.712-2.297-1.521-3.582-1.997
			c-1.283-0.476-2.792-0.578-3.973,0.111c-0.604,0.351-1.105,0.894-1.774,1.093c-1.817,0.539-3.899-1.666-5.46-0.592
			c-3.935-7.153-9.589-12.146-16.196-14.919c-0.904-6.587-1.888-12.422-3.479-18.086c-0.77-2.747-1.693-5.494-1.804-8.344
			c-0.051-1.302,0.162-2.782,1.222-3.54c0.379-0.27,0.829-0.418,1.251-0.616c1.598-0.758,2.779-2.398,2.846-4.164
			c0.065-1.768-1.077-3.552-2.759-4.099c-0.185-2.925-0.764-5.557-1.646-8.081c-0.229-0.659-0.497-1.334-1.01-1.808
			c-0.507-0.466-1.231-0.685-1.91-0.576c-0.679,0.109-1.299,0.545-1.634,1.147c-2.137-1.711-5.156-1.344-6.382,0.547
			c-1.587-0.878-3.809-0.33-4.805,1.186c-0.211,0.32-0.383,0.687-0.701,0.902c-0.473,0.318-1.105,0.203-1.658,0.335
			c-1.308,0.308-1.871,1.859-1.973,3.197c-0.197,2.583,0.539,5.224,2.042,7.335c1.47,12.872-0.681,25.717,3.913,37.098
			c2.496,6.183,6.806,11.426,10.945,16.654c6.808,8.602,13.315,17.443,19.505,26.501c1.508,3.371,2.094,6.781,3.696,9.766
			c1.449,2.702,3.696,4.981,4.699,7.878c0.821,2.366,0.74,4.943,1.287,7.386c0.659,2.944,2.202,5.597,3.517,8.31
			c4.547,9.372,6.506,19.831,7.019,30.236C515.615,325.107,514.733,335.524,513.851,345.904z"/>
		<path style="clip-path:url(#SVGID_00000180344066434679685280000005324308796915055515_);fill:#2B2B2B;" d="M706.294,193.003
			c-1.419-4.842-3.489-9.463-5.551-14.067c-3.614-8.067-7.23-16.135-10.844-24.202c-0.699-1.56-1.414-3.145-2.546-4.424
			c-1.132-1.279-2.769-2.226-4.473-2.116c-0.9-3.592-1.812-7.267-3.083-10.814c-0.635-1.777-1.373-3.542-2.511-5.045
			c-0.72-0.951-1.644-1.816-2.792-2.138c-1.148-0.324-2.546,0.029-3.161,1.052c-0.828-0.248-1.552-0.763-2.37-1.044
			c-0.816-0.281-1.845-0.266-2.405,0.394c-0.148,0.176-0.256,0.391-0.441,0.527c-0.609,0.447-1.416-0.219-2.169-0.264
			c-1.22-0.074-1.948,1.456-3.138,1.755c-0.336,0.086-0.703,0.066-1.011,0.229c-0.42,0.221-0.613,0.711-0.722,1.172
			c-0.281,1.175-0.24,2.423,0.117,3.575c-0.164,0.804-0.748,1.041-1.13,1.265c-0.619,0.365-0.892,1.156-0.818,1.87
			c0.074,0.717,0.433,1.371,0.832,1.97c1.269,1.911,3.024,3.499,5.051,4.574c1.87,0.99,3.993,1.57,5.609,2.936
			c1.664,1.406,2.591,3.475,3.444,5.48c-0.705,0.129-0.886,0.724-0.945,1.236c-0.203,1.829,0.213,3.669,0.679,5.449
			c2.739,10.465,7.347,20.438,13.536,29.309c-2.507,2.489-4.246,4.282-5.986,6.074c-0.556,0.574-1.125,1.158-1.833,1.531
			c-1.279,0.676-2.821,0.572-4.217,0.961c-2.48,0.691-4.385,2.901-6.927,3.307c-2.534,0.406-4.955-1.08-7.025-2.597
			c-2.07-1.519-4.258-3.206-6.824-3.284c0.215-1.835,1.142-4.287,1.162-6.759c0.019-2.472-0.867-4.938-2.454-6.831
			c0.244-4.137,0.084-7.811-0.83-11.338c-0.916-3.528-2.649-6.941-5.447-9.274c-2.964-2.472-6.935-3.548-10.791-3.43
			c-3.858,0.115-7.614,1.351-11.066,3.075c-2.025,1.013-3.998,2.224-5.484,3.932c-2.068,2.376-3.034,5.549-3.272,8.688
			c-0.24,3.14,0.193,6.287,0.623,9.405c-1.378,1.318-2.241,1.868-2.743,2.712c-0.41,0.691-0.537,1.509-0.623,2.308
			c-0.215,2.031-0.207,4.116,0.383,6.07c0.588,1.954,1.812,3.774,3.59,4.774c-1.786,7.064-7.839,11.64-13.485,15.639
			c-2.378,1.683-4.754,3.364-7.132,5.047c-1.781,1.261-3.571,2.53-5.113,4.073c-5.443,5.443-7.138,13.544-7.893,21.203
			c-0.363,3.676-0.582,7.427-1.862,10.892c-0.533,1.441-1.244,2.811-1.74,4.264c-0.908,2.657-1.076,5.5-1.238,8.304
			c-0.709,12.394-1.417,24.786-2.128,37.182c-0.156,2.731-0.302,5.541,0.547,8.143c1.698,5.207,6.872,8.335,11.654,11.008
			c-0.736,9.728-1.703,20.133-2.338,30.579h106.548c-1.159-11.141-2.883-25.85-5.09-36.567c4.719-2.116,8.616-5.994,10.108-10.344
			c1.49-4.35,1.107-9.088,0.707-13.671c-1.835-20.992-3.669-41.985-5.502-62.977c3.827-4.565,3.594-9.707,6.035-13.264
			c0.656-0.953,1.492-1.773,2.115-2.747c1.447-2.253,1.622-5.08,2.634-7.56c1.195-2.932,3.544-5.34,4.41-8.386
			C707.739,198.951,707.134,195.872,706.294,193.003z"/>
		<path style="clip-path:url(#SVGID_00000180344066434679685280000005324308796915055515_);fill:#2B2B2B;" d="M495.264,333.077
			c0.042,2.232,0.454,4.462,0.252,6.686c-0.229,2.514-1.224,4.885-1.774,7.348c-1.097,4.946-0.416,10.359-2.716,14.872
			c-1.56,3.064-4.462,5.411-7.781,6.298c-0.783,4.681,2.404,8.564,3.389,12.873c0.957,4.197-0.221,8.615,0.395,12.876
			c0.55,3.794,2.485,7.24,3.478,10.943c1.528,5.704,0.783,11.882,2.682,17.476c0.995,2.93,2.712,5.695,2.852,8.787
			c0.142,3.091-2.298,6.629-5.337,6.041c1.091,5.44,1.373,10.69,1.218,15.906h-97.591c0.29-4.996,0.68-9.986,1.272-14.955
			c-3.204-2.767-4.77-5.659-5.271-8.579c-0.501-2.92-0.091-5.909,0.318-8.844c1.92-13.748,3.841-27.497,5.761-41.247
			c-0.276-2.073-1.093-1.975-1.844-1.954c-3.204,0.093-6.398-1.649-8.055-4.392c-1.214-2.009-1.606-4.435-1.464-6.777
			c0.142-2.342,0.789-4.626,1.536-6.849c-0.8-2.706-0.838-4.231-0.403-5.441c0.435-1.21,1.239-2.249,1.755-3.425
			c1.139-2.601,0.774-5.621,1.606-8.335c0.768-2.502,2.493-4.577,3.775-6.86c1.734-3.085,2.652-6.552,3.556-9.977
			c0.681-2.591,1.366-5.192,1.693-7.851c0.429-3.478,0.248-7.055,1.207-10.425c1.176-4.129,3.968-7.601,6.983-10.654
			c1.852-1.88,3.841-3.665,6.143-4.953c6.987-3.909,15.564-2.693,23.532-3.465c1.753-3.121,1.918-5.152,2.067-7.185
			c0.076-1.038,0.142-2.118-0.233-3.092c-0.318-0.83-0.944-1.53-1.182-2.389c-0.416-1.492,0.418-3.159-0.147-4.602
			c-0.263-0.673-0.796-1.195-1.239-1.767c-2.224-2.869-1.973-7.367,0.558-9.973c-2.045-6.805-1.583-14.289,2.065-20.126
			c3.65-5.835,10.728-9.638,17.52-8.519c2.826,0.465,5.462,1.706,7.976,3.073c3.875,2.107,7.745,4.755,9.623,8.746
			c0.889,1.889,1.273,3.974,1.487,6.052c0.526,5.077,0.064,10.255-1.354,15.159c2.02,1.744,2.29,3.675,2.294,5.398
			c0.004,2.035-0.331,4.301-1.918,5.572c-1.615,1.292-4.07,1.161-5.61,2.54c-1.818,1.63-1.61,4.634-3.159,6.523
			c0.721,2.846,0.912,5.888,0.94,8.929c2.892,0.649,5.697,1.252,8.502,1.855c3.711,0.798,7.624,1.698,10.378,4.307
			c1.349,1.28,2.385,2.941,4.012,3.836c0.787,0.433,1.668,0.658,2.489,1.016c4.899,2.139,6.58,8.371,6.109,13.695
			C497.14,322.569,495.156,327.734,495.264,333.077z"/>
		<path style="clip-path:url(#SVGID_00000180344066434679685280000005324308796915055515_);fill:#2B2B2B;" d="M462.137,164.605
			c-5.532-11.224-6.839-19.104-15.876-22.301c-4.414-1.561-6.711-2.543-7.914-3.143c-0.023-0.237-0.054-0.474-0.092-0.706
			c-0.117-0.734-0.248-1.498-0.69-2.096c-0.441-0.598-1.294-0.964-1.95-0.611c-0.006-1.36-1.184-2.612-2.542-2.697
			c-0.125-1.453-1.072-2.667-2.215-2.945c-1.144-0.278-2.353,0.174-3.315,0.853c-0.98-0.719-1.146-1.473-1.564-2.097
			c-0.416-0.626-1.146-1.101-1.886-0.997c-0.622,0.089-1.118,0.545-1.553,0.993c-1.382,1.424-2.597,3.011-3.625,4.709
			c-12.465-2.322-30.247-3.918-49.774-0.293c-13.982,2.596-76.506,8.287-86.805,5.476c-6.053-1.652-9.926-0.851-12.102,0.089
			c-0.14-0.453-0.271-0.909-0.381-1.37c-0.391-1.636-2.559-2.18-3.522-0.802c-0.007,0.01-0.014,0.02-0.02,0.03
			c-0.352,0.518-0.685,1.241-1.309,1.21c-0.422-0.019-0.726-0.401-1.103-0.596c-1.038-0.537-2.215,0.46-2.818,1.464
			c-0.603,1.004-1.19,2.232-2.338,2.47c-0.456,0.093-0.942,0.004-1.39,0.134c-1.458,0.422-1.466,2.614-2.663,3.548
			c-0.473,0.369-1.093,0.509-1.564,0.881c-0.245,0.195-0.412,0.435-0.542,0.694c-5.712,3.585-15.013,11.766-17.626,28.016
			l12.913,6.482c0,0,6.216-10.264,8.24-20.157c0.02-0.1,0.046-0.193,0.068-0.291c0.048,0.145,0.096,0.291,0.144,0.436
			c1.577,16.753,3.157,33.936,9.362,49.746c2.079,5.296,4.662,10.395,6.489,15.785c3.646,10.747,4.356,22.775,10.854,32.079
			c-0.978,7.497,3.62,12.515,6.724,17.491c6.128,9.818,6.913,21.936,7.529,33.492c0.254,4.787,0.511,9.583,0.365,14.374
			c-0.263,8.655-1.322,18.728,5.065,24.574c-2.925,11.355-3.634,22.013-3.063,32.528h86.418c0.676-10.673,0.914-21.373,0.684-32.065
			c-0.006-2.769,1.772-4.168,2.822-5.952c1.063-1.803,1.354-3.951,1.504-6.037c1.324-18.1-6.005-35.867-5.712-54.013
			c0.03-1.914,0.157-3.877,0.923-5.632c0.98-2.237,2.964-4.057,3.329-6.474c0.193-1.29-0.104-2.633,0.227-3.896
			c0.303-1.163,1.103-2.118,1.746-3.13c1.273-1.995,1.992-4.337,2.063-6.703c6.398-8.834,12.477-17.451,15.522-27.33
			c1.084-3.516,1.772-7.159,3.138-10.578c1.84-4.605,4.849-8.636,7.165-13.02c7.229-13.678,7.367-29.817,9.663-45.114
			c0.385-3.492,3.247-6.088,5.268-8.933c0.201,1.06,0.692,2.244,1.701,3.499c3.563,4.43,0.272,23.984-5.681,33.754
			c-5.953,9.77-3.131,20.027-3.131,20.027s13.379,3.002,22.471-4.085c9.092-7.087,15.924-7.853,15.924-7.853
			S467.668,175.83,462.137,164.605z M417.426,159.747c-1.825,11.739-9.436,21.274-12.935,32.209
			c-1.555,4.866-2.317,10.062-4.891,14.474c-1.71,2.932-4.138,5.366-6.34,7.951c-4.596,5.394-8.284,11.558-10.866,18.159
			c-2.971,0.193-4.921,1.295-6.183,2.725c-1.263,1.428-2.101,3.193-3.374,4.613c-1.258,1.409-2.935,2.442-4.762,2.937
			c-0.554,0.151-1.137,0.259-1.608,0.59c-0.764,0.537-1.048,1.519-1.583,2.287c-1.057,1.515-3,2.077-4.793,2.536
			c-1.49,0.382-3.036,0.766-4.549,0.48c-1.647-0.314-3.036-1.388-4.354-2.428c1.046-6.013,1.723-10.376,1.589-14.713
			c3.459-2.232,4.872-5.574,5.233-8.704c0.155-1.354,0.163-2.765-0.331-4.036s-1.572-2.381-2.918-2.602
			c1.195-8.174-2.419-16.564-9.02-20.831c-6.601-4.271-15.832-4.087-22.17,0.564c-6.34,4.649-9.279,13.51-6.839,20.984
			c-1.84,3.401-2.61,6.612-1.778,9.404c0.832,2.793,3.229,5.057,6.064,5.729c1.536,4.883,2.419,9.51,3.132,14.166
			c-2.279,0.27-3.527,2.451-5.086,2.139c-0.721-0.144-1.218-0.779-1.763-1.273c-0.887-0.809-2.054-1.305-3.253-1.39
			c-1.036-0.074-2.131,0.144-3.085-0.263c-0.931-0.399-1.526-1.305-2.13-2.12c-2.016-2.714-4.762-4.885-7.87-6.217
			c-3.215-9.648-8.443-19.634-16.014-27.356c-0.448-8.609-6.38-16.746-9.686-25.395c-1.326-3.471-2.239-7.089-3.041-10.72
			c-1.515-6.858-2.612-14.174-0.225-20.78c0.427-1.184,0.966-2.399,1.301-3.619c14.935,1.152,58.325,3.989,74.807-0.483
			c28.124-7.631,54.752-6.267,71.018-4.107C419.618,149.643,418.526,154.794,417.426,159.747z"/>
	</g>
	<path d="M553.594,94.198c0.959,0.057,1.691,0.881,1.634,1.839l-0.07,1.189c3.207,2.622,12.492,8.013,38.762,14.454
		c56.108,13.756,70.489,50.632,70.489,50.632s-29.283-4.712-62.552,13.577c-24.656,13.554-45.875,9.696-51.823,8.191
		l-15.445,261.777c-0.057,0.958-0.881,1.691-1.839,1.634c-0.959-0.057-1.691-0.881-1.634-1.839l20.639-349.82
		C551.811,94.874,552.635,94.141,553.594,94.198z"/>
	<g>
		<defs>
			<rect id="SVGID_00000068665948116251368420000012912847332687741877_" width="750" height="500"/>
		</defs>
		<clipPath id="SVGID_00000043442006855363802930000003643233083578700210_">
			<use xlink:href="#SVGID_00000068665948116251368420000012912847332687741877_"  style="overflow:visible;"/>
		</clipPath>
		<path style="clip-path:url(#SVGID_00000043442006855363802930000003643233083578700210_);" d="M-4.314,507.31h791.145
			c-1.46-11.095-0.827-25.217-0.431-36.066c0.419-11.483,0.543-23.141-2.347-34.259c-2.89-11.12-9.16-21.795-19.009-27.709
			c-6.872-4.127-16.066-5.536-22.766-1.136c-3.598-8.486-3.76-18.332-4.903-28.025c-1.144-9.693-3.415-19.586-9.205-27.443
			c-5.788-7.859-15.782-13.24-25.329-11.206c-1.746-10.793-2.525-19.155-6.411-26.296c-3.886-7.139-11.752-12.778-19.775-11.466
			c-0.978,0.16-1.962,0.42-2.947,0.307c-0.887-0.103-1.709-0.5-2.568-0.744c-3.381-0.96-7.076,0.58-9.601,3.024
			c-2.527,2.444-4.117,5.67-5.657,8.83c-5.35-7.088-12.918-10.682-20.407-10.32c-7.488,0.363-14.674,4.67-18.524,11.105
			c-3.556,5.944-4.232,13.159-4.177,20.085c-0.822,0.304-1.478,1.049-1.847,1.877c-0.369,0.828-0.494,1.74-0.614,2.639
			c-0.721-1.271-1.276-2.636-1.647-4.049c-0.281-1.067-0.461-2.166-0.875-3.187c-0.416-1.023-1.112-1.99-2.123-2.432
			c-2.113-2.957-3.317-5.985-3.755-9.178c-0.535-3.916,0.104-7.946-0.667-11.821c0.351-1.953,1.194-2.948,1.986-3.956
			c0.792-1.01,1.558-2.086,1.862-3.331c0.302-1.247,0.041-2.708-0.949-3.523c0.609-0.967,0.969-2.089,1.038-3.231
			c0.041-0.671-0.106-1.479-0.722-1.747c-0.709-0.308-1.454,0.308-1.981,0.874l-2.921,3.134c-0.691-2.457-0.922-4.72-0.898-6.979
			c0.012-1.078,0.069-2.206-0.411-3.171c-0.278-0.561-0.84-1.07-1.457-0.969c-0.583,0.094-0.944,0.668-1.214,1.194
			c-0.617,1.204-1.159,2.447-1.619,3.721c-0.366-1.12-0.759-2.948-1.43-4.668c-0.204-0.521-0.447-1.056-0.886-1.406
			c-0.438-0.348-1.123-0.449-1.546-0.083c-0.331,0.289-0.461,0.809-0.871,0.961c-0.304,0.113-0.636-0.023-0.96-0.015
			c-0.49,0.009-0.923,0.36-1.17,0.784c-0.245,0.426-0.334,0.92-0.413,1.407c-0.508,3.153-0.706,6.349-0.904,9.538
			c-2.33-0.898-4.04-1.502-5.803-1.813c-0.233-0.039-0.502-0.067-0.674,0.092c-0.11,0.101-0.154,0.254-0.18,0.402
			c-0.211,1.262,0.602,2.463,1.501,3.372c1.008,1.019,2.202,1.883,3.564,2.335c-0.165,1.15-0.369,2.267-0.429,3.394
			c-5.649-1.756-11.656-0.023-15.466,3.731c-3.81,3.757-5.625,9.181-5.932,14.523c-3.638,7.357-3.814,17.061-0.514,25.456
			c-1.634,2.599-4.018,4.425-6.426,4.262c-1.415-0.095-2.897-0.777-4.188-0.189c-0.423,0.193-0.78,0.508-1.128,0.817
			c-0.786,0.7-1.572,1.4-2.359,2.099c-1.889,1.685-3.796,3.388-5.241,5.466c-1.764-1.422-2.451-2.126-2.98-2.935
			c-0.534-0.819-0.91-1.753-1.596-2.448c-0.686-0.695-1.844-1.079-2.643-0.517c-0.981-1.916-2.565-3.521-4.469-4.528
			c0.233-1.189-0.177-2.382-0.497-3.316c-1.022-2.971-0.517-6.214-0.538-9.355c-0.042-5.495-1.82-11.026-5.297-15.284
			c-3.477-4.256-8.688-7.147-14.176-7.473c-3.316-2.571-6.379-2.76-9.148-2.766c-3.048-0.006-6.198,0.089-8.965,1.366
			c-4.275,1.972-6.94,6.576-7.488,11.25c-0.547,4.676,0.76,9.399,2.716,13.682c0.162,4.256,0.071,7.884-0.02,11.513
			c-2.196,0.407-3.354,1.886-3.926,3.571c-0.621,1.829-0.555,3.82-0.978,5.705c-0.497,2.202-1.647,4.2-2.326,6.353
			c-1.328,4.223-0.781,8.777-0.219,13.168c-2.584,1.185-4.092,1.658-5.602,2.129c-0.245,0.077-0.547,0.141-0.728-0.041
			c-0.092-0.094-0.125-0.23-0.145-0.36c-0.169-1.016,0.159-2.051,0.586-2.989c0.429-0.939,0.964-1.836,1.251-2.826
			c0.287-0.99,0.292-2.128-0.292-2.98c-0.585-0.849-1.877-1.236-2.698-0.612c0.941-1.173,1.443-2.688,1.387-4.192
			c-0.023-0.623-0.147-1.263-0.503-1.773c-0.357-0.511-0.985-0.866-1.602-0.762c-0.7,0.12-1.2,0.766-1.88,0.976
			c-0.289-1.192-0.181-2.72-1.126-3.577c-0.863-0.784-2.231-0.648-3.294-0.172c-1.065,0.474-1.996,1.23-3.097,1.611
			c0.351-1.159-0.902-2.323-2.114-2.289c-1.21,0.035-2.247,0.88-3.032,1.803c-4.921,5.803-3.359,15.217-8.314,20.992
			c1.04-5.861,0.523-12.095-2.188-17.21c-1.031-1.945-2.373-3.76-2.967-5.88c-1.011-3.609,0.304-7.405,0.623-11.14
			c0.715-8.344-4.127-16.891-11.653-20.565c-2.923-1.428-6.145-2.155-9.376-2.543c-6.29-0.757-13.92,0.494-16.638,6.216
			c-1.186-5.338-2.135-10.715-3.697-15.905c-0.286-0.957-0.849-2.099-1.845-2.069c-0.373,0.012-0.718,0.201-1.029,0.405
			c-2.244,1.484-3.532,4.868-1.774,6.905c-1.794,0.361-3.376,1.646-4.103,3.328c-0.724,1.681-0.571,3.713,0.397,5.267
			c-1.816-0.089-3.08,1.86-3.381,3.653c-0.302,1.794-0.067,3.704-0.787,5.374c-1.129-0.638-1.146-1.1-1.159-1.563
			c-2.019,1.909-5.856,1.39-7.209,3.818c-0.345,0.62-0.455,1.341-0.704,2.004c-0.821,2.176-2.991,3.468-4.736,5.007
			c-2.766,2.439-4.662,5.846-5.276,9.483c-0.768,4.547,0.422,9.17,1.599,13.63c-5.409-2.998-9.278-4.189-13.143-5.38
			c-8.363-4.315-15.835-5.385-22.932-4.165c-1.366-4.479-1.85-9.225-1.419-13.887c0.141-1.516,0.316-3.237-0.7-4.371
			c-0.632-0.707-1.598-1.016-2.315-1.634c-3.287-2.837,0.234-10.009-3.724-11.794c2.991-8.168-1.041-18.016-8.459-22.563
			s-17.371-3.984-24.805,0.535c-4.26,2.589-8.052,7.212-7.101,12.107c0.236,1.215,0.756,2.43,0.518,3.644
			c-0.186,0.946-0.807,1.736-1.351,2.531c-2.232,3.257-3.425,7.215-3.364,11.164c-8.239,0.283-13.913,5.33-14.46,11.309
			c-3.755-0.872-7.943,0.493-10.464,3.411c-1.346,1.558-2.208,3.467-3.296,5.217c-2.158,3.471-5.224,6.344-7.12,9.968
			c-2.698,5.156-2.744,11.242-2.729,17.064c-6.941-2.533-8.867-9.55-9.823-16.24c-0.544-3.813-0.857-7.659-0.934-11.51
			c-0.071-3.601,0.003-7.437-1.898-10.499c-1.22-1.965-3.133-3.387-4.603-5.17c-1.537-1.86-2.572-4.088-4.053-5.995
			c-2.794-3.597-7.026-5.84-11.384-7.167c-2.58-0.786-5.35-1.286-7.96-0.618c-2.275,0.585-4.23,2.001-6.124,3.388
			c-4.714,3.453-9.532,7.014-12.732,11.903c-3.394,5.184-4.693,11.44-5.577,17.572c-7.503-2.63-15.705,1.428-20.38,7.691
			c-4.674,6.264-6.335,14.304-6.628,22.114c-0.091,2.429-0.071,4.909-0.818,7.221c-0.86,2.666-2.67,4.901-4.009,7.36
			c-2.797,5.138-3.482,11.386-1.865,17.008c0.228,0.792,0.493,1.668,0.128,2.404c-0.358,0.721-1.189,1.046-1.948,1.309
			c-3.997,1.389-7.996,2.776-11.993,4.165c-2.59,0.899-5.235,1.829-7.375,3.544c-2.138,1.714-3.71,4.395-3.356,7.115
			c-2.544-6.908-3.576-12.911-7.809-16.476c-2.874-2.42-6.737-3.26-9.993-5.135c-2.312-1.334-4.294-3.177-6.554-4.602
			c-5.858-3.69-13.293-4.387-18.904-8.443c-3.051-6.606-1.567-13.237,2.379-17.892c1.118-1.319,2.415-2.482,3.464-3.855
			c2.982-3.908,3.66-9.072,3.911-13.981c0.221-4.295,0.184-8.669-0.997-12.802c-2.513-8.793-10.538-15.744-19.6-16.978
			c-4.006-0.547-8.093-0.057-12.031,0.861c-3.461,0.807-6.913,1.981-9.733,4.146c-5.373,4.123-7.644,11.259-7.779,18.029
			c-2.968,2.25-4.091,6.057-3.071,9.302c0.278,0.886,0.703,1.74,0.786,2.666c0.153,1.667-0.812,3.208-1.271,4.819
			c-0.966,3.396,0.343,7.044-0.116,10.546c-0.287,2.178-1.248,4.221-1.56,6.396c-0.57,3.953,1.043,7.862,2.618,11.534
			c-7.673,0.588-14.177,3.11-19.453,7.228c-0.931-0.673-0.727-2.066-0.689-3.423c0.039-1.356-0.15-2.843-1.123-3.787
			c-0.973-0.946-2.935-0.867-3.409,0.404c0.053-0.712,0.095-1.466-0.239-2.096c-0.335-0.63-1.197-1.034-1.786-0.632
			c-0.224,0.151-0.372,0.389-0.506,0.624c-0.694,1.201-1.235,2.49-1.606,3.826c0.054-1.129-1.616-1.644-2.542-0.993
			c-0.925,0.65-1.22,1.869-1.401,2.986c-0.257,1.576-0.425,3.168-0.503,4.764c-0.556-0.745-1.835-0.458-2.367,0.302
			c-0.532,0.76-0.535,1.758-0.517,2.685c0.076,3.904,0.154,7.807,0.239,11.709c-4.381,2.796-5.788,7.655-6.16,12.223
			c-0.372,4.569,0.051,9.231-0.997,13.695c-0.611,2.602-1.711,5.078-2.231,7.701c-1.049,5.274,0.432,10.995,3.908,15.098
			c0.682,0.807,1.46,1.593,1.747,2.609c0.264,0.929,0.08,1.919-0.088,2.87C-4.445,494.456-4.778,500.913-4.314,507.31z"/>
	</g>
</g>
</svg>
